<svg style="vertical-align: -0.564ex;" xmlns="http://www.w3.org/2000/svg" width="8.154ex" height="2.26ex" role="img" focusable="false" viewBox="0 -749.5 3604.1 999"><g stroke="currentColor" fill="currentColor" stroke-width="0" transform="scale(1,-1)"><g data-mml-node="math"><g data-mml-node="mo" transform="translate(0 -0.5)"><path data-c="7C" d="M139 -249H137Q125 -249 119 -235V251L120 737Q130 750 139 750Q152 750 159 735V-235Q151 -249 141 -249H139Z"></path></g><g data-mml-node="TeXAtom" data-mjx-texclass="ORD" transform="translate(278,0)"><g data-mml-node="mi"><path data-c="2124" d="M39 -1Q29 9 29 12Q29 23 60 77T219 337L410 648H364Q261 648 210 628Q168 612 142 588T109 545T97 509T88 490Q85 489 80 489Q72 489 61 503L70 588Q72 607 75 628T79 662T81 675Q84 677 88 681Q90 683 341 683H592Q604 673 604 666Q604 662 412 348L221 37Q221 35 301 35Q406 35 446 48Q504 68 543 111T597 212Q602 239 617 239Q624 239 629 234T635 223Q635 215 621 113T604 8L597 1Q595 -1 317 -1H39ZM148 637L166 648H112V632Q111 629 110 622T108 612Q108 608 110 608T116 612T129 623T148 637ZM552 646Q552 648 504 648Q452 648 450 643Q448 639 266 343T77 37Q77 35 128 35H179L366 339L552 646ZM572 35Q581 89 581 97L561 77Q542 59 526 48L508 37L539 35H572Z"></path></g></g><g data-mml-node="mo" transform="translate(945,0) translate(0 -0.5)"><path data-c="7C" d="M139 -249H137Q125 -249 119 -235V251L120 737Q130 750 139 750Q152 750 159 735V-235Q151 -249 141 -249H139Z"></path></g><g data-mml-node="mo" transform="translate(1500.8,0)"><path data-c="3D" d="M56 347Q56 360 70 367H707Q722 359 722 347Q722 336 708 328L390 327H72Q56 332 56 347ZM56 153Q56 168 72 173H708Q722 163 722 153Q722 140 707 133H70Q56 140 56 153Z"></path></g><g data-mml-node="msub" transform="translate(2556.6,0)"><g data-mml-node="mi"><path data-c="2135" d="M55 613Q55 643 61 663T74 688T85 694Q94 694 94 681Q98 632 134 588L412 285Q416 311 430 397T447 509V519L438 526Q407 554 398 571T388 617T394 664T407 688T418 694Q425 694 427 684Q429 675 454 635T488 586Q490 584 496 579T513 563T537 540Q555 516 555 487Q555 460 549 441T537 416T528 409Q519 409 517 415T513 435T503 463Q492 481 490 481Q454 264 454 246Q454 237 479 212T529 152T555 79Q555 32 538 9Q531 1 524 1Q516 1 516 13Q512 62 476 106Q468 115 337 258T195 412L193 406Q191 401 189 394T183 377T176 352T171 322T167 284T165 240Q165 224 166 220Q171 199 211 152T252 70Q252 45 235 29T203 8T175 1Q170 0 115 0H79Q60 0 58 3T55 20Q55 31 58 34Q60 37 76 37Q112 39 126 46T140 70Q140 96 112 148T83 236Q83 281 102 334T140 419T159 452Q55 556 55 613Z"></path></g><g data-mml-node="mn" transform="translate(644,-150) scale(0.707)"><path data-c="30" d="M96 585Q152 666 249 666Q297 666 345 640T423 548Q460 465 460 320Q460 165 417 83Q397 41 362 16T301 -15T250 -22Q224 -22 198 -16T137 16T82 83Q39 165 39 320Q39 494 96 585ZM321 597Q291 629 250 629Q208 629 178 597Q153 571 145 525T137 333Q137 175 145 125T181 46Q209 16 250 16Q290 16 318 46Q347 76 354 130T362 333Q362 478 354 524T321 597Z"></path></g></g></g></g></svg>