<svg style="vertical-align: -0.564ex;" xmlns="http://www.w3.org/2000/svg" width="9.931ex" height="2.26ex" role="img" focusable="false" viewBox="0 -749.5 4389.6 999"><g stroke="currentColor" fill="currentColor" stroke-width="0" transform="scale(1,-1)"><g data-mml-node="math"><g data-mml-node="mo" transform="translate(0 -0.5)"><path data-c="7C" d="M139 -249H137Q125 -249 119 -235V251L120 737Q130 750 139 750Q152 750 159 735V-235Q151 -249 141 -249H139Z"></path></g><g data-mml-node="mn" transform="translate(278,0)"><path data-c="32" d="M109 429Q82 429 66 447T50 491Q50 562 103 614T235 666Q326 666 387 610T449 465Q449 422 429 383T381 315T301 241Q265 210 201 149L142 93L218 92Q375 92 385 97Q392 99 409 186V189H449V186Q448 183 436 95T421 3V0H50V19V31Q50 38 56 46T86 81Q115 113 136 137Q145 147 170 174T204 211T233 244T261 278T284 308T305 340T320 369T333 401T340 431T343 464Q343 527 309 573T212 619Q179 619 154 602T119 569T109 550Q109 549 114 549Q132 549 151 535T170 489Q170 464 154 447T109 429Z"></path></g><g data-mml-node="TeXAtom" data-mjx-texclass="ORD" transform="translate(778,0)"><g data-mml-node="mi"><path data-c="2115" d="M20 664Q20 666 31 683H142Q256 683 258 681Q259 680 279 653T342 572T422 468L582 259V425Q582 451 582 490T583 541Q583 611 573 628T522 648Q500 648 493 654Q484 665 493 679L500 683H691Q702 676 702 666Q702 657 698 652Q688 648 680 648Q633 648 627 612Q624 601 624 294V-8Q616 -20 607 -20Q601 -20 596 -15Q593 -13 371 270L156 548L153 319Q153 284 153 234T152 167Q152 103 156 78T172 44T213 34Q236 34 242 28Q253 17 242 3L236 -1H36Q24 6 24 16Q24 34 56 34Q58 35 69 36T86 40T100 50T109 72Q111 83 111 345V603L96 619Q72 643 44 648Q20 648 20 664ZM413 419L240 648H120L136 628Q137 626 361 341T587 54L589 68Q589 78 589 121V192L413 419Z"></path></g></g><g data-mml-node="mo" transform="translate(1500,0) translate(0 -0.5)"><path data-c="7C" d="M139 -249H137Q125 -249 119 -235V251L120 737Q130 750 139 750Q152 750 159 735V-235Q151 -249 141 -249H139Z"></path></g><g data-mml-node="mo" transform="translate(2055.8,0)"><path data-c="3D" d="M56 347Q56 360 70 367H707Q722 359 722 347Q722 336 708 328L390 327H72Q56 332 56 347ZM56 153Q56 168 72 173H708Q722 163 722 153Q722 140 707 133H70Q56 140 56 153Z"></path></g><g data-mml-node="mo" transform="translate(3111.6,0) translate(0 -0.5)"><path data-c="7C" d="M139 -249H137Q125 -249 119 -235V251L120 737Q130 750 139 750Q152 750 159 735V-235Q151 -249 141 -249H139Z"></path></g><g data-mml-node="TeXAtom" data-mjx-texclass="ORD" transform="translate(3389.6,0)"><g data-mml-node="mi"><path data-c="2115" d="M20 664Q20 666 31 683H142Q256 683 258 681Q259 680 279 653T342 572T422 468L582 259V425Q582 451 582 490T583 541Q583 611 573 628T522 648Q500 648 493 654Q484 665 493 679L500 683H691Q702 676 702 666Q702 657 698 652Q688 648 680 648Q633 648 627 612Q624 601 624 294V-8Q616 -20 607 -20Q601 -20 596 -15Q593 -13 371 270L156 548L153 319Q153 284 153 234T152 167Q152 103 156 78T172 44T213 34Q236 34 242 28Q253 17 242 3L236 -1H36Q24 6 24 16Q24 34 56 34Q58 35 69 36T86 40T100 50T109 72Q111 83 111 345V603L96 619Q72 643 44 648Q20 648 20 664ZM413 419L240 648H120L136 628Q137 626 361 341T587 54L589 68Q589 78 589 121V192L413 419Z"></path></g></g><g data-mml-node="mo" transform="translate(4111.6,0) translate(0 -0.5)"><path data-c="7C" d="M139 -249H137Q125 -249 119 -235V251L120 737Q130 750 139 750Q152 750 159 735V-235Q151 -249 141 -249H139Z"></path></g></g></g></svg>