<svg style="vertical-align: -0.357ex;" xmlns="http://www.w3.org/2000/svg" width="13.426ex" height="1.977ex" role="img" focusable="false" viewBox="0 -716 5934.1 873.8"><g stroke="currentColor" fill="currentColor" stroke-width="0" transform="scale(1,-1)"><g data-mml-node="math"><g data-mml-node="msub"><g data-mml-node="mi"><path data-c="1D434" d="M208 74Q208 50 254 46Q272 46 272 35Q272 34 270 22Q267 8 264 4T251 0Q249 0 239 0T205 1T141 2Q70 2 50 0H42Q35 7 35 11Q37 38 48 46H62Q132 49 164 96Q170 102 345 401T523 704Q530 716 547 716H555H572Q578 707 578 706L606 383Q634 60 636 57Q641 46 701 46Q726 46 726 36Q726 34 723 22Q720 7 718 4T704 0Q701 0 690 0T651 1T578 2Q484 2 455 0H443Q437 6 437 9T439 27Q443 40 445 43L449 46H469Q523 49 533 63L521 213H283L249 155Q208 86 208 74ZM516 260Q516 271 504 416T490 562L463 519Q447 492 400 412L310 260L413 259Q516 259 516 260Z"></path></g><g data-mml-node="mi" transform="translate(783,-150) scale(0.707)"><path data-c="1D45A" d="M21 287Q22 293 24 303T36 341T56 388T88 425T132 442T175 435T205 417T221 395T229 376L231 369Q231 367 232 367L243 378Q303 442 384 442Q401 442 415 440T441 433T460 423T475 411T485 398T493 385T497 373T500 364T502 357L510 367Q573 442 659 442Q713 442 746 415T780 336Q780 285 742 178T704 50Q705 36 709 31T724 26Q752 26 776 56T815 138Q818 149 821 151T837 153Q857 153 857 145Q857 144 853 130Q845 101 831 73T785 17T716 -10Q669 -10 648 17T627 73Q627 92 663 193T700 345Q700 404 656 404H651Q565 404 506 303L499 291L466 157Q433 26 428 16Q415 -11 385 -11Q372 -11 364 -4T353 8T350 18Q350 29 384 161L420 307Q423 322 423 345Q423 404 379 404H374Q288 404 229 303L222 291L189 157Q156 26 151 16Q138 -11 108 -11Q95 -11 87 -5T76 7T74 17Q74 30 112 181Q151 335 151 342Q154 357 154 369Q154 405 129 405Q107 405 92 377T69 316T57 280Q55 278 41 278H27Q21 284 21 287Z"></path></g></g><g data-mml-node="mo" transform="translate(1676.1,0)"><path data-c="2229" d="M88 -21T75 -21T55 -7V200Q55 231 55 280Q56 414 60 428Q61 430 61 431Q77 500 152 549T332 598Q443 598 522 544T610 405Q611 399 611 194V-7Q604 -22 591 -22Q582 -22 572 -9L570 405Q563 433 556 449T529 485Q498 519 445 538T334 558Q251 558 179 518T96 401Q95 396 95 193V-7Q88 -21 75 -21Z"></path></g><g data-mml-node="msub" transform="translate(2565.3,0)"><g data-mml-node="mi"><path data-c="1D434" d="M208 74Q208 50 254 46Q272 46 272 35Q272 34 270 22Q267 8 264 4T251 0Q249 0 239 0T205 1T141 2Q70 2 50 0H42Q35 7 35 11Q37 38 48 46H62Q132 49 164 96Q170 102 345 401T523 704Q530 716 547 716H555H572Q578 707 578 706L606 383Q634 60 636 57Q641 46 701 46Q726 46 726 36Q726 34 723 22Q720 7 718 4T704 0Q701 0 690 0T651 1T578 2Q484 2 455 0H443Q437 6 437 9T439 27Q443 40 445 43L449 46H469Q523 49 533 63L521 213H283L249 155Q208 86 208 74ZM516 260Q516 271 504 416T490 562L463 519Q447 492 400 412L310 260L413 259Q516 259 516 260Z"></path></g><g data-mml-node="mi" transform="translate(783,-150) scale(0.707)"><path data-c="1D45B" d="M21 287Q22 293 24 303T36 341T56 388T89 425T135 442Q171 442 195 424T225 390T231 369Q231 367 232 367L243 378Q304 442 382 442Q436 442 469 415T503 336T465 179T427 52Q427 26 444 26Q450 26 453 27Q482 32 505 65T540 145Q542 153 560 153Q580 153 580 145Q580 144 576 130Q568 101 554 73T508 17T439 -10Q392 -10 371 17T350 73Q350 92 386 193T423 345Q423 404 379 404H374Q288 404 229 303L222 291L189 157Q156 26 151 16Q138 -11 108 -11Q95 -11 87 -5T76 7T74 17Q74 30 112 180T152 343Q153 348 153 366Q153 405 129 405Q91 405 66 305Q60 285 60 284Q58 278 41 278H27Q21 284 21 287Z"></path></g></g><g data-mml-node="mo" transform="translate(4100.3,0)"><path data-c="3D" d="M56 347Q56 360 70 367H707Q722 359 722 347Q722 336 708 328L390 327H72Q56 332 56 347ZM56 153Q56 168 72 173H708Q722 163 722 153Q722 140 707 133H70Q56 140 56 153Z"></path></g><g data-mml-node="mi" transform="translate(5156.1,0)"><path data-c="2205" d="M624 470Q624 468 639 446T668 382T683 291Q683 181 612 99T437 -1Q425 -2 387 -2T337 -1Q245 18 193 70L179 81L131 39Q96 8 89 3T75 -3Q55 -3 55 17Q55 24 61 30T111 73Q154 113 151 113Q151 114 140 130T115 177T95 241Q94 253 94 291T95 341Q112 431 173 495Q265 587 385 587Q410 587 437 581Q522 571 582 513L595 501L642 541Q689 586 695 586Q696 586 697 586T699 587Q706 587 713 583T720 568Q720 560 711 551T664 510Q651 499 642 490T628 475T624 470ZM564 477Q517 522 448 539Q428 546 375 546Q290 546 229 492T144 370Q133 332 133 279Q136 228 151 195Q157 179 168 160T184 141Q186 141 375 307T564 477ZM642 290Q642 318 637 343T625 386T611 416T598 436T593 444Q590 444 402 277T213 108Q213 104 231 89T293 55T392 37Q495 37 568 111T642 290Z"></path></g></g></g></svg>