<svg style="vertical-align: -0.375ex;" xmlns="http://www.w3.org/2000/svg" width="6.367ex" height="1.945ex" role="img" focusable="false" viewBox="0 -694 2814.1 859.6"><g stroke="currentColor" fill="currentColor" stroke-width="0" transform="scale(1,-1)"><g data-mml-node="math"><g data-mml-node="msub"><g data-mml-node="mi"><path data-c="2135" d="M55 613Q55 643 61 663T74 688T85 694Q94 694 94 681Q98 632 134 588L412 285Q416 311 430 397T447 509V519L438 526Q407 554 398 571T388 617T394 664T407 688T418 694Q425 694 427 684Q429 675 454 635T488 586Q490 584 496 579T513 563T537 540Q555 516 555 487Q555 460 549 441T537 416T528 409Q519 409 517 415T513 435T503 463Q492 481 490 481Q454 264 454 246Q454 237 479 212T529 152T555 79Q555 32 538 9Q531 1 524 1Q516 1 516 13Q512 62 476 106Q468 115 337 258T195 412L193 406Q191 401 189 394T183 377T176 352T171 322T167 284T165 240Q165 224 166 220Q171 199 211 152T252 70Q252 45 235 29T203 8T175 1Q170 0 115 0H79Q60 0 58 3T55 20Q55 31 58 34Q60 37 76 37Q112 39 126 46T140 70Q140 96 112 148T83 236Q83 281 102 334T140 419T159 452Q55 556 55 613Z"></path></g><g data-mml-node="mn" transform="translate(644,-150) scale(0.707)"><path data-c="30" d="M96 585Q152 666 249 666Q297 666 345 640T423 548Q460 465 460 320Q460 165 417 83Q397 41 362 16T301 -15T250 -22Q224 -22 198 -16T137 16T82 83Q39 165 39 320Q39 494 96 585ZM321 597Q291 629 250 629Q208 629 178 597Q153 571 145 525T137 333Q137 175 145 125T181 46Q209 16 250 16Q290 16 318 46Q347 76 354 130T362 333Q362 478 354 524T321 597Z"></path></g></g><g data-mml-node="mo" transform="translate(1325.3,0)"><path data-c="3C" d="M694 -11T694 -19T688 -33T678 -40Q671 -40 524 29T234 166L90 235Q83 240 83 250Q83 261 91 266Q664 540 678 540Q681 540 687 534T694 519T687 505Q686 504 417 376L151 250L417 124Q686 -4 687 -5Q694 -11 694 -19Z"></path></g><g data-mml-node="mi" transform="translate(2381.1,0)"><path data-c="1D450" d="M34 159Q34 268 120 355T306 442Q362 442 394 418T427 355Q427 326 408 306T360 285Q341 285 330 295T319 325T330 359T352 380T366 386H367Q367 388 361 392T340 400T306 404Q276 404 249 390Q228 381 206 359Q162 315 142 235T121 119Q121 73 147 50Q169 26 205 26H209Q321 26 394 111Q403 121 406 121Q410 121 419 112T429 98T420 83T391 55T346 25T282 0T202 -11Q127 -11 81 37T34 159Z"></path></g></g></g></svg>