<svg style="vertical-align: -0.186ex;" xmlns="http://www.w3.org/2000/svg" width="5.868ex" height="1.932ex" role="img" focusable="false" viewBox="0 -772 2593.6 854"><g stroke="currentColor" fill="currentColor" stroke-width="0" transform="scale(1,-1)"><g data-mml-node="math"><g data-mml-node="mi"><path data-c="1D436" d="M50 252Q50 367 117 473T286 641T490 704Q580 704 633 653Q642 643 648 636T656 626L657 623Q660 623 684 649Q691 655 699 663T715 679T725 690L740 705H746Q760 705 760 698Q760 694 728 561Q692 422 692 421Q690 416 687 415T669 413H653Q647 419 647 422Q647 423 648 429T650 449T651 481Q651 552 619 605T510 659Q484 659 454 652T382 628T299 572T226 479Q194 422 175 346T156 222Q156 108 232 58Q280 24 350 24Q441 24 512 92T606 240Q610 253 612 255T628 257Q648 257 648 248Q648 243 647 239Q618 132 523 55T319 -22Q206 -22 128 53T50 252Z"></path></g><g data-mml-node="mo" transform="translate(1037.8,0)"><path data-c="3D" d="M56 347Q56 360 70 367H707Q722 359 722 347Q722 336 708 328L390 327H72Q56 332 56 347ZM56 153Q56 168 72 173H708Q722 163 722 153Q722 140 707 133H70Q56 140 56 153Z"></path></g><g data-mml-node="mi" transform="translate(2093.6,0)"><path data-c="2205" d="M331 696Q335 708 339 722T345 744T350 759T357 769T367 772Q374 772 381 767T388 754Q388 746 377 712L366 673L378 661Q460 575 460 344Q460 281 456 234T432 126T373 27Q319 -22 250 -22Q214 -22 180 -7Q168 -3 168 -4L159 -33Q148 -71 142 -75Q138 -78 132 -78Q124 -78 118 -72T111 -60Q111 -52 122 -18L133 21L125 29Q39 111 39 344Q39 596 137 675Q187 716 251 716Q265 716 278 714T296 710T315 703T331 696ZM276 676Q264 679 246 679Q196 679 159 631Q134 597 128 536T121 356Q121 234 127 174T151 80L234 366Q253 430 275 506T308 618L318 654Q318 656 294 669L276 676ZM181 42Q207 16 250 16Q291 16 324 47Q354 78 366 136T378 356Q378 470 372 528T349 616L348 613Q348 611 264 326L181 42Z"></path></g></g></g></svg>