<svg style="vertical-align: -0.686ex;" xmlns="http://www.w3.org/2000/svg" width="5.28ex" height="2.498ex" role="img" focusable="false" viewBox="0 -801 2333.6 1104"><g stroke="currentColor" fill="currentColor" stroke-width="0" transform="scale(1,-1)"><g data-mml-node="math"><g data-mml-node="mn"><path data-c="33" d="M127 463Q100 463 85 480T69 524Q69 579 117 622T233 665Q268 665 277 664Q351 652 390 611T430 522Q430 470 396 421T302 350L299 348Q299 347 308 345T337 336T375 315Q457 262 457 175Q457 96 395 37T238 -22Q158 -22 100 21T42 130Q42 158 60 175T105 193Q133 193 151 175T169 130Q169 119 166 110T159 94T148 82T136 74T126 70T118 67L114 66Q165 21 238 21Q293 21 321 74Q338 107 338 175V195Q338 290 274 322Q259 328 213 329L171 330L168 332Q166 335 166 348Q166 366 174 366Q202 366 232 371Q266 376 294 413T322 525V533Q322 590 287 612Q265 626 240 626Q208 626 181 615T143 592T132 580H135Q138 579 143 578T153 573T165 566T175 555T183 540T186 520Q186 498 172 481T127 463Z"></path></g><g data-mml-node="mo" transform="translate(777.8,0)"><path data-c="2270" d="M82 -124Q82 -120 83 -117T89 -110T95 -103H220L284 50Q346 204 344 206L218 268Q153 297 123 313T87 333T82 344T86 355Q104 369 291 455Q491 552 491 553L542 673Q581 767 590 784T609 801Q616 801 622 795T629 781Q629 773 586 677Q546 581 546 577L609 606Q669 635 673 635Q680 635 686 629T693 615Q693 610 692 608T670 593T604 561L524 521L400 226L542 157Q617 123 649 107T687 85T694 72Q694 66 690 60T679 54Q664 54 526 121Q513 127 495 136T464 150T438 162T416 173T399 180T388 185L384 186Q383 186 322 41L262 -103H680Q682 -105 684 -108T688 -113T691 -118T693 -124Q693 -134 682 -141L464 -143H246L213 -219Q182 -292 178 -299Q172 -303 166 -303T153 -297T146 -283Q146 -282 174 -213T202 -143H146L93 -141Q82 -134 82 -124ZM418 370L466 495Q464 495 308 420T151 344T204 317T311 267T364 244Q364 247 418 370Z"></path></g><g data-mml-node="mn" transform="translate(1833.6,0)"><path data-c="32" d="M109 429Q82 429 66 447T50 491Q50 562 103 614T235 666Q326 666 387 610T449 465Q449 422 429 383T381 315T301 241Q265 210 201 149L142 93L218 92Q375 92 385 97Q392 99 409 186V189H449V186Q448 183 436 95T421 3V0H50V19V31Q50 38 56 46T86 81Q115 113 136 137Q145 147 170 174T204 211T233 244T261 278T284 308T305 340T320 369T333 401T340 431T343 464Q343 527 309 573T212 619Q179 619 154 602T119 569T109 550Q109 549 114 549Q132 549 151 535T170 489Q170 464 154 447T109 429Z"></path></g></g></g></svg>