<svg style="vertical-align: -0.05ex;" xmlns="http://www.w3.org/2000/svg" width="6.942ex" height="1.645ex" role="img" focusable="false" viewBox="0 -705 3068.4 727"><g stroke="currentColor" fill="currentColor" stroke-width="0" transform="scale(1,-1)"><g data-mml-node="math"><g data-mml-node="mi"><path data-c="1D446" d="M308 24Q367 24 416 76T466 197Q466 260 414 284Q308 311 278 321T236 341Q176 383 176 462Q176 523 208 573T273 648Q302 673 343 688T407 704H418H425Q521 704 564 640Q565 640 577 653T603 682T623 704Q624 704 627 704T632 705Q645 705 645 698T617 577T585 459T569 456Q549 456 549 465Q549 471 550 475Q550 478 551 494T553 520Q553 554 544 579T526 616T501 641Q465 662 419 662Q362 662 313 616T263 510Q263 480 278 458T319 427Q323 425 389 408T456 390Q490 379 522 342T554 242Q554 216 546 186Q541 164 528 137T492 78T426 18T332 -20Q320 -22 298 -22Q199 -22 144 33L134 44L106 13Q83 -14 78 -18T65 -22Q52 -22 52 -14Q52 -11 110 221Q112 227 130 227H143Q149 221 149 216Q149 214 148 207T144 186T142 153Q144 114 160 87T203 47T255 29T308 24Z"></path></g><g data-mml-node="mo" transform="translate(867.2,0)"><path data-c="2227" d="M318 591Q325 598 333 598Q344 598 348 591Q349 590 414 445T545 151T611 -4Q609 -22 591 -22Q588 -22 586 -21T581 -20T577 -17T575 -13T572 -9T570 -4L333 528L96 -4Q87 -20 80 -21Q78 -22 75 -22Q57 -22 55 -4Q55 2 120 150T251 444T318 591Z"></path></g><g data-mml-node="mi" transform="translate(1756.4,0)"><path data-c="AC" d="M56 323T56 336T70 356H596Q603 353 611 343V102Q598 89 591 89Q587 89 584 90T579 94T575 98T572 102L571 209V316H70Q56 323 56 336Z"></path></g><g data-mml-node="mi" transform="translate(2423.4,0)"><path data-c="1D446" d="M308 24Q367 24 416 76T466 197Q466 260 414 284Q308 311 278 321T236 341Q176 383 176 462Q176 523 208 573T273 648Q302 673 343 688T407 704H418H425Q521 704 564 640Q565 640 577 653T603 682T623 704Q624 704 627 704T632 705Q645 705 645 698T617 577T585 459T569 456Q549 456 549 465Q549 471 550 475Q550 478 551 494T553 520Q553 554 544 579T526 616T501 641Q465 662 419 662Q362 662 313 616T263 510Q263 480 278 458T319 427Q323 425 389 408T456 390Q490 379 522 342T554 242Q554 216 546 186Q541 164 528 137T492 78T426 18T332 -20Q320 -22 298 -22Q199 -22 144 33L134 44L106 13Q83 -14 78 -18T65 -22Q52 -22 52 -14Q52 -11 110 221Q112 227 130 227H143Q149 221 149 216Q149 214 148 207T144 186T142 153Q144 114 160 87T203 47T255 29T308 24Z"></path></g></g></g></svg>