<svg style="vertical-align: -0.186ex;" xmlns="http://www.w3.org/2000/svg" width="5.866ex" height="1.932ex" role="img" focusable="false" viewBox="0 -772 2592.6 854"><g stroke="currentColor" fill="currentColor" stroke-width="0" transform="scale(1,-1)"><g data-mml-node="math"><g data-mml-node="mi"><path data-c="1D435" d="M231 637Q204 637 199 638T194 649Q194 676 205 682Q206 683 335 683Q594 683 608 681Q671 671 713 636T756 544Q756 480 698 429T565 360L555 357Q619 348 660 311T702 219Q702 146 630 78T453 1Q446 0 242 0Q42 0 39 2Q35 5 35 10Q35 17 37 24Q42 43 47 45Q51 46 62 46H68Q95 46 128 49Q142 52 147 61Q150 65 219 339T288 628Q288 635 231 637ZM649 544Q649 574 634 600T585 634Q578 636 493 637Q473 637 451 637T416 636H403Q388 635 384 626Q382 622 352 506Q352 503 351 500L320 374H401Q482 374 494 376Q554 386 601 434T649 544ZM595 229Q595 273 572 302T512 336Q506 337 429 337Q311 337 310 336Q310 334 293 263T258 122L240 52Q240 48 252 48T333 46Q422 46 429 47Q491 54 543 105T595 229Z"></path></g><g data-mml-node="mo" transform="translate(1036.8,0)"><path data-c="3D" d="M56 347Q56 360 70 367H707Q722 359 722 347Q722 336 708 328L390 327H72Q56 332 56 347ZM56 153Q56 168 72 173H708Q722 163 722 153Q722 140 707 133H70Q56 140 56 153Z"></path></g><g data-mml-node="mi" transform="translate(2092.6,0)"><path data-c="2205" d="M331 696Q335 708 339 722T345 744T350 759T357 769T367 772Q374 772 381 767T388 754Q388 746 377 712L366 673L378 661Q460 575 460 344Q460 281 456 234T432 126T373 27Q319 -22 250 -22Q214 -22 180 -7Q168 -3 168 -4L159 -33Q148 -71 142 -75Q138 -78 132 -78Q124 -78 118 -72T111 -60Q111 -52 122 -18L133 21L125 29Q39 111 39 344Q39 596 137 675Q187 716 251 716Q265 716 278 714T296 710T315 703T331 696ZM276 676Q264 679 246 679Q196 679 159 631Q134 597 128 536T121 356Q121 234 127 174T151 80L234 366Q253 430 275 506T308 618L318 654Q318 656 294 669L276 676ZM181 42Q207 16 250 16Q291 16 324 47Q354 78 366 136T378 356Q378 470 372 528T349 616L348 613Q348 611 264 326L181 42Z"></path></g></g></g></svg>